# xmcd CD database file generated by Grip 3.2.0
# 
# Track frame offsets:
#       150
#       21141
#       49566
#       66899
#       92408
#       122551
#       139912
#       159521
#       182842
#       205902
#       230435
#       252215
# 
# Disc length: 3693 seconds
# 
# Revision: 2
# Processed by: cddbd v1.5.2PL0 Copyright (c) Steve Scherf et al.
# Submitted via: Grip 3.2.0
# 
DISCID=9c0e6b0c
DTITLE=Allen Toussaint - The Bright Mississippi
DYEAR=2008
DGENRE=Jazz
TTITLE0=Egyptian Fantasy
TTITLE1=Dear Old Southland
TTITLE2=St. James Infirmary
TTITLE3=Singin' The Blues
TTITLE4=Winin' Boy Blues
TTITLE5=West End Blues
TTITLE6=Blue Drag
TTITLE7=Just A Closer Walk With Thee
TTITLE8=Bright Mississippi
TTITLE9=Daydream
TTITLE10=Long Long Journey
TTITLE11=Solitude
EXTD=
EXTT0=
EXTT1=
EXTT2=
EXTT3=
EXTT4=
EXTT5=
EXTT6=
EXTT7=
EXTT8=
EXTT9=
EXTT10=
EXTT11=
PLAYORDER=
